<svg viewBox="0 0 1200 900" xmlns="http://www.w3.org/2000/svg">
  <defs>
    <style>
      .title { font-family: Arial, sans-serif; font-size: 20px; font-weight: bold; text-anchor: middle; }
      .subtitle { font-family: Arial, sans-serif; font-size: 16px; font-weight: bold; text-anchor: middle; }
      .text { font-family: Arial, sans-serif; font-size: 12px; }
      .small-text { font-family: Arial, sans-serif; font-size: 10px; }
      .code { font-family: monospace; font-size: 10px; }
      .header-bg { fill: #2563eb; }
      .config-bg { fill: #f0f9ff; stroke: #2563eb; stroke-width: 2; }
      .process-bg { fill: #ecfdf5; stroke: #059669; stroke-width: 2; }
      .output-bg { fill: #fef3c7; stroke: #d97706; stroke-width: 2; }
      .prereq-bg { fill: #f3e8ff; stroke: #7c3aed; stroke-width: 2; }
      .arrow { stroke: #374151; stroke-width: 2; fill: none; marker-end: url(#arrowhead); }
    </style>
    <marker id="arrowhead" markerWidth="10" markerHeight="7" refX="9" refY="3.5" orient="auto">
      <polygon points="0 0, 10 3.5, 0 7" fill="#374151" />
    </marker>
  </defs>
  
  <!-- Background -->
  <rect width="1200" height="900" fill="#ffffff"/>
  
  <!-- Title -->
  <rect x="0" y="0" width="1200" height="60" class="header-bg"/>
  <text x="600" y="35" class="title" fill="white">Dify一括登録ツール要件・構成図</text>
  
  <!-- Configuration Section -->
  <rect x="50" y="80" width="350" height="220" class="config-bg" rx="10"/>
  <text x="225" y="105" class="subtitle" fill="#1e40af">設定ファイル (.env)</text>
  
  <text x="70" y="130" class="code" fill="#374151">BASE_URL=http://localhost</text>
  <text x="70" y="145" class="code" fill="#374151">OWNER_EMAIL=hogehoge@gmail.com</text>
  <text x="70" y="160" class="code" fill="#374151">OWNER_PASSWORD=hogehoge</text>
  <text x="70" y="175" class="code" fill="#374151">ADMIN_LISTCSV=admin_list.csv</text>
  <text x="70" y="190" class="code" fill="#374151">ADMIN_PASSWORD=password</text>
  <text x="70" y="205" class="code" fill="#374151">REGISTRATION_URL=registration_url.csv</text>
  <text x="70" y="220" class="code" fill="#374151">REMOVE_SQL=remove_sql.txt</text>
  
  <text x="70" y="240" class="small-text" fill="#6b7280">※管理者リストのパスワード列が空の場合、</text>
  <text x="70" y="255" class="small-text" fill="#6b7280">ADMIN_PASSWORDが使用される</text>
  <text x="70" y="275" class="small-text" fill="#dc2626">※登録できるのは管理者のみ（所有者は除く）</text>
  
  <!-- Input CSV Section -->
  <rect x="50" y="320" width="350" height="150" class="config-bg" rx="10"/>
  <text x="225" y="345" class="subtitle" fill="#1e40af">入力CSV (admin_list.csv)</text>
  
  <text x="70" y="370" class="code" fill="#374151">E-Mail,name,password</text>
  <text x="70" y="385" class="code" fill="#374151">user1@gmail.com,User1,"user1_passwd"</text>
  <text x="70" y="400" class="code" fill="#374151">user2@gmail.com,User2,"user2_passwd"</text>
  
  <text x="70" y="425" class="small-text" fill="#6b7280">列名：E-Mail（メールアドレス）</text>
  <text x="70" y="440" class="small-text" fill="#6b7280">　　　name（表示名）</text>
  <text x="70" y="455" class="small-text" fill="#6b7280">　　　password（パスワード）</text>
  
  <!-- Tool Process Section -->
  <rect x="450" y="80" width="300" height="390" class="process-bg" rx="10"/>
  <text x="600" y="105" class="subtitle" fill="#059669">ツール処理フロー</text>
  
  <!-- Process Steps -->
  <rect x="470" y="120" width="260" height="30" fill="#d1fae5" stroke="#059669" rx="5"/>
  <text x="600" y="140" class="text" text-anchor="middle" fill="#065f46">1. .envファイル読み込み</text>
  
  <rect x="470" y="160" width="260" height="30" fill="#d1fae5" stroke="#059669" rx="5"/>
  <text x="600" y="180" class="text" text-anchor="middle" fill="#065f46">2. admin_list.csv読み込み</text>
  
  <rect x="470" y="200" width="260" height="30" fill="#d1fae5" stroke="#059669" rx="5"/>
  <text x="600" y="220" class="text" text-anchor="middle" fill="#065f46">3. Difyに所有者でログイン</text>
  
  <rect x="470" y="240" width="260" height="30" fill="#d1fae5" stroke="#059669" rx="5"/>
  <text x="600" y="260" class="text" text-anchor="middle" fill="#065f46">4. 管理者招待リンク生成</text>
  
  <rect x="470" y="280" width="260" height="30" fill="#d1fae5" stroke="#059669" rx="5"/>
  <text x="600" y="300" class="text" text-anchor="middle" fill="#065f46">5. 招待リンクにアクセス</text>
  
  <rect x="470" y="320" width="260" height="30" fill="#d1fae5" stroke="#059669" rx="5"/>
  <text x="600" y="340" class="text" text-anchor="middle" fill="#065f46">6. ユーザー登録実行</text>
  
  <rect x="470" y="360" width="260" height="30" fill="#d1fae5" stroke="#059669" rx="5"/>
  <text x="600" y="380" class="text" text-anchor="middle" fill="#065f46">7. 出力ファイル生成</text>
  
  <text x="470" y="415" class="small-text" fill="#059669">使用技術：</text>
  <text x="470" y="430" class="small-text" fill="#059669">• Playwright (TypeScript)</text>
  <text x="470" y="445" class="small-text" fill="#059669">• Web画面自動操作</text>
  <text x="470" y="460" class="small-text" fill="#059669">• CSV入出力処理</text>
  
  <!-- Output Files Section -->
  <rect x="800" y="80" width="350" height="270" class="output-bg" rx="10"/>
  <text x="975" y="105" class="subtitle" fill="#d97706">出力ファイル</text>
  
  <!-- Registration URL CSV -->
  <text x="820" y="130" class="text" fill="#92400e" font-weight="bold">registration_url.csv</text>
  <text x="820" y="150" class="code" fill="#374151">E-Mail,registration_url</text>
  <text x="820" y="165" class="code" fill="#374151">user1@gmail.com,http://localhost/activate...</text>
  <text x="820" y="180" class="code" fill="#374151">user2@gmail.com,http://localhost/activate...</text>
  
  <!-- Remove SQL -->
  <text x="820" y="210" class="text" fill="#92400e" font-weight="bold">remove_sql.txt</text>
  <text x="820" y="230" class="code" fill="#374151">delete from accounts WHERE</text>
  <text x="820" y="245" class="code" fill="#374151">  email = 'user1@gmail.com';</text>
  <text x="820" y="260" class="code" fill="#374151">delete from accounts WHERE</text>
  <text x="820" y="275" class="code" fill="#374151">  email = 'user2@gmail.com';</text>
  
  <text x="820" y="305" class="small-text" fill="#92400e">※docker-db-1コンテナでの</text>
  <text x="820" y="320" class="small-text" fill="#92400e">ユーザー削除用SQLコマンド</text>
  <text x="820" y="335" class="small-text" fill="#92400e">※招待リンクは自動保存</text>
  
  <!-- Prerequisites Section -->
  <rect x="800" y="370" width="350" height="200" class="prereq-bg" rx="10"/>
  <text x="975" y="395" class="subtitle" fill="#7c3aed">前提条件・環境</text>
  
  <text x="820" y="420" class="text" fill="#5b21b6">1. Windows 11</text>
  <text x="820" y="435" class="text" fill="#5b21b6">2. Node.js (v22.14.0)</text>
  <text x="820" y="450" class="text" fill="#5b21b6">3. npm (10.9.2)</text>
  <text x="820" y="465" class="text" fill="#5b21b6">4. Playwright (10.9.2)</text>
  <text x="820" y="480" class="text" fill="#5b21b6">5. Playwright msedgeブラウザ</text>
  <text x="820" y="495" class="text" fill="#5b21b6">6. VSCode (1.101.1)</text>
  <text x="820" y="510" class="text" fill="#5b21b6">7. Playwright Test for VSCode (1.1.15)</text>
  <text x="820" y="525" class="text" fill="#5b21b6">8. Difyの所有者アカウント</text>
  
  <text x="820" y="550" class="small-text" fill="#7c3aed">※VSCodeと拡張機能は必須ではない可能性あり</text>
  
  <!-- Bottom Section - Key Points -->
  <rect x="50" y="590" width="1100" height="120" fill="#f9fafb" stroke="#d1d5db" stroke-width="1" rx="10"/>
  <text x="600" y="615" class="subtitle" fill="#374151">重要なポイント</text>
  
  <text x="70" y="640" class="text" fill="#dc2626">• 危険回避：PostgreSQL直接操作ではなく、Web画面経由で安全に登録</text>
  <text x="70" y="655" class="text" fill="#dc2626">• 制限事項：管理者のみ登録可能（閲覧者・編集者・所有者は対象外）</text>
  <text x="70" y="670" class="text" fill="#059669">• 自動化範囲：招待リンク生成 → アクセス → ユーザー登録 → 出力ファイル生成</text>
  <text x="70" y="685" class="text" fill="#2563eb">• 管理機能：個別パスワード設定、削除用SQL自動生成、招待リンク保存</text>
  
  <!-- Arrows -->
  <line x1="400" y1="190" x2="440" y2="190" class="arrow"/>
  <line x1="400" y1="395" x2="440" y2="280" class="arrow"/>
  <line x1="750" y1="250" x2="790" y2="250" class="arrow"/>
  <line x1="750" y1="350" x2="790" y2="300" class="arrow"/>
  
  <!-- Process Flow Arrows -->
  <line x1="600" y1="150" x2="600" y2="160" stroke="#059669" stroke-width="2" marker-end="url(#arrowhead)"/>
  <line x1="600" y1="190" x2="600" y2="200" stroke="#059669" stroke-width="2" marker-end="url(#arrowhead)"/>
  <line x1="600" y1="230" x2="600" y2="240" stroke="#059669" stroke-width="2" marker-end="url(#arrowhead)"/>
  <line x1="600" y1="270" x2="600" y2="280" stroke="#059669" stroke-width="2" marker-end="url(#arrowhead)"/>
  <line x1="600" y1="310" x2="600" y2="320" stroke="#059669" stroke-width="2" marker-end="url(#arrowhead)"/>
  <line x1="600" y1="350" x2="600" y2="360" stroke="#059669" stroke-width="2" marker-end="url(#arrowhead)"/>
  
  <!-- Technology Badge -->
  <rect x="50" y="490" width="350" height="80" fill="#eff6ff" stroke="#3b82f6" stroke-width="2" rx="10"/>
  <text x="225" y="515" class="subtitle" fill="#1d4ed8">開発背景</text>
  <text x="70" y="535" class="small-text" fill="#1e40af">PostgreSQL直接操作は危険 → Web画面操作で安全性確保</text>
  <text x="70" y="550" class="small-text" fill="#1e40af">Playwright使用でブラウザ操作を自動化</text>
  <text x="70" y="565" class="small-text" fill="#1e40af">CSVベースでの一括処理を実現</text>
</svg>